<?xml version="1.0" encoding="UTF-8" standalone="no"?>
<!DOCTYPE svg PUBLIC "-//W3C//DTD SVG 1.1//EN"
 "http://www.w3.org/Graphics/SVG/1.1/DTD/svg11.dtd">
<!-- Generated by graphviz version 12.2.1 (20241206.2353)
 -->
<!-- Title: Interdependencies Pages: 1 -->
<svg width="181pt" height="310pt"
 viewBox="0.00 0.00 180.96 309.50" xmlns="http://www.w3.org/2000/svg" xmlns:xlink="http://www.w3.org/1999/xlink">
<g id="graph0" class="graph" transform="scale(1 1) rotate(0) translate(4 305.5)">
<title>Interdependencies</title>
<polygon fill="#ffffff" stroke="none" points="-4,4 -4,-305.5 176.96,-305.5 176.96,4 -4,4"/>
<!-- A -->
<g id="node1" class="node">
<title>A</title>
<path fill="#eeeeee" stroke="black" d="M97,-301.5C97,-301.5 54,-301.5 54,-301.5 48,-301.5 42,-295.5 42,-289.5 42,-289.5 42,-277.5 42,-277.5 42,-271.5 48,-265.5 54,-265.5 54,-265.5 97,-265.5 97,-265.5 103,-265.5 109,-271.5 109,-277.5 109,-277.5 109,-289.5 109,-289.5 109,-295.5 103,-301.5 97,-301.5"/>
<text text-anchor="middle" x="75.5" y="-278.45" font-family="Times New Roman,serif" font-size="14.00" fill="#333333">Project A</text>
</g>
<!-- B -->
<g id="node2" class="node">
<title>B</title>
<path fill="#eeeeee" stroke="black" d="M55,-213C55,-213 12,-213 12,-213 6,-213 0,-207 0,-201 0,-201 0,-189 0,-189 0,-183 6,-177 12,-177 12,-177 55,-177 55,-177 61,-177 67,-183 67,-189 67,-189 67,-201 67,-201 67,-207 61,-213 55,-213"/>
<text text-anchor="middle" x="33.5" y="-189.95" font-family="Times New Roman,serif" font-size="14.00" fill="#333333">Project B</text>
</g>
<!-- A&#45;&gt;B -->
<g id="edge1" class="edge">
<title>A&#45;&gt;B</title>
<path fill="none" stroke="#999999" d="M63.63,-265.08C60.14,-259.58 56.47,-253.4 53.5,-247.5 49.69,-239.93 46.13,-231.45 43.1,-223.59"/>
<polygon fill="#999999" stroke="#999999" points="46.48,-222.63 39.72,-214.47 39.91,-225.06 46.48,-222.63"/>
<text text-anchor="middle" x="71.5" y="-234.2" font-family="Times New Roman,serif" font-size="14.00">Task 1</text>
</g>
<!-- C -->
<g id="node3" class="node">
<title>C</title>
<path fill="#eeeeee" stroke="black" d="M140,-213C140,-213 97,-213 97,-213 91,-213 85,-207 85,-201 85,-201 85,-189 85,-189 85,-183 91,-177 97,-177 97,-177 140,-177 140,-177 146,-177 152,-183 152,-189 152,-189 152,-201 152,-201 152,-207 146,-213 140,-213"/>
<text text-anchor="middle" x="118.5" y="-189.95" font-family="Times New Roman,serif" font-size="14.00" fill="#333333">Project C</text>
</g>
<!-- A&#45;&gt;C -->
<g id="edge2" class="edge">
<title>A&#45;&gt;C</title>
<path fill="none" stroke="#999999" d="M84,-265.41C89.96,-253.4 98.07,-237.09 104.93,-223.3"/>
<polygon fill="#999999" stroke="#999999" points="107.88,-225.22 109.2,-214.71 101.62,-222.1 107.88,-225.22"/>
<text text-anchor="middle" x="118.85" y="-234.2" font-family="Times New Roman,serif" font-size="14.00">Task 2</text>
</g>
<!-- D -->
<g id="node4" class="node">
<title>D</title>
<path fill="#eeeeee" stroke="black" d="M95.38,-124.5C95.38,-124.5 51.62,-124.5 51.62,-124.5 45.62,-124.5 39.62,-118.5 39.62,-112.5 39.62,-112.5 39.62,-100.5 39.62,-100.5 39.62,-94.5 45.62,-88.5 51.62,-88.5 51.62,-88.5 95.38,-88.5 95.38,-88.5 101.38,-88.5 107.38,-94.5 107.38,-100.5 107.38,-100.5 107.38,-112.5 107.38,-112.5 107.38,-118.5 101.38,-124.5 95.38,-124.5"/>
<text text-anchor="middle" x="73.5" y="-101.45" font-family="Times New Roman,serif" font-size="14.00" fill="#333333">Project D</text>
</g>
<!-- B&#45;&gt;D -->
<g id="edge3" class="edge">
<title>B&#45;&gt;D</title>
<path fill="none" stroke="#999999" d="M30.47,-176.54C29.48,-166.19 29.66,-153.07 34.5,-142.5 35.97,-139.29 37.88,-136.26 40.08,-133.41"/>
<polygon fill="#999999" stroke="#999999" points="42.61,-135.83 46.82,-126.11 37.46,-131.09 42.61,-135.83"/>
<text text-anchor="middle" x="52.5" y="-145.7" font-family="Times New Roman,serif" font-size="14.00">Task 3</text>
</g>
<!-- C&#45;&gt;D -->
<g id="edge4" class="edge">
<title>C&#45;&gt;D</title>
<path fill="none" stroke="#999999" d="M104.89,-176.75C100.91,-171.26 96.77,-165.04 93.5,-159 89.47,-151.54 85.84,-143.1 82.81,-135.24"/>
<polygon fill="#999999" stroke="#999999" points="86.19,-134.29 79.48,-126.1 79.62,-136.69 86.19,-134.29"/>
<text text-anchor="middle" x="111.5" y="-145.7" font-family="Times New Roman,serif" font-size="14.00">Task 4</text>
</g>
<!-- E -->
<g id="node5" class="node">
<title>E</title>
<path fill="#eeeeee" stroke="black" d="M129.62,-36C129.62,-36 87.38,-36 87.38,-36 81.38,-36 75.38,-30 75.38,-24 75.38,-24 75.38,-12 75.38,-12 75.38,-6 81.38,0 87.38,0 87.38,0 129.62,0 129.62,0 135.62,0 141.62,-6 141.62,-12 141.62,-12 141.62,-24 141.62,-24 141.62,-30 135.62,-36 129.62,-36"/>
<text text-anchor="middle" x="108.5" y="-12.95" font-family="Times New Roman,serif" font-size="14.00" fill="#333333">Project E</text>
</g>
<!-- C&#45;&gt;E -->
<g id="edge5" class="edge">
<title>C&#45;&gt;E</title>
<path fill="none" stroke="#999999" d="M125.05,-176.8C126.87,-171.21 128.59,-164.92 129.5,-159 136.58,-112.87 141.96,-98.97 129.5,-54 128.78,-51.41 127.81,-48.81 126.69,-46.28"/>
<polygon fill="#999999" stroke="#999999" points="129.89,-44.83 122.1,-37.65 123.7,-48.12 129.89,-44.83"/>
<text text-anchor="middle" x="154.96" y="-101.45" font-family="Times New Roman,serif" font-size="14.00">Task 5</text>
</g>
<!-- D&#45;&gt;E -->
<g id="edge6" class="edge">
<title>D&#45;&gt;E</title>
<path fill="none" stroke="#999999" d="M80.02,-88.27C83.86,-78.24 88.86,-65.37 93.5,-54 94.45,-51.66 95.46,-49.24 96.47,-46.82"/>
<polygon fill="#999999" stroke="#999999" points="99.62,-48.36 100.31,-37.79 93.18,-45.62 99.62,-48.36"/>
<text text-anchor="middle" x="111.5" y="-57.2" font-family="Times New Roman,serif" font-size="14.00">Task 6</text>
</g>
</g>
</svg>
