<svg width="64pt" height="116pt" viewBox="0.00 0.00 63.75 116.00" xmlns="http://www.w3.org/2000/svg" xmlns:xlink="http://www.w3.org/1999/xlink">
<g id="graph0" class="graph" transform="scale(1 1) rotate(0) translate(4 112)">
<title>SimpleGraph</title>
<g><path d="M-3.9365176742264794 -112.07302806198678 C-3.9365176742264794 -112.07302806198678, -3.9365176742264794 -112.07302806198678, -3.9365176742264794 -112.07302806198678 M-3.9365176742264794 -112.07302806198678 C-3.9365176742264794 -112.07302806198678, -3.9365176742264794 -112.07302806198678, -3.9365176742264794 -112.07302806198678 M-3.8472627149137084 -105.6730502037485 C-1.949631328450022 -107.00783468553861, -0.34691929393685084 -109.28047517041085, 1.5908543207051542 -111.89240248443377 M-4.136668680252415 -105.42930794796956 C-2.553274094240808 -107.22133927477566, -1.3048652142022146 -109.7555745166159, 1.2872929514992988 -111.39796037788946 M-4.088484550238174 -100.42653841250242 C-1.8327307402757573 -103.52340257220396, 1.0028631558823715 -107.53425863153849, 6.989465241618568 -113.61728974093771 M-4.265345520652929 -100.36652349561437 C0.1433766956976792 -103.92505956660887, 2.2175152288039355 -108.11329356512437, 6.477639726853078 -112.4235798387042 M-3.040567627856065 -93.58243156795245 C-1.2175667928466183 -95.92922959772439, 2.2142843246106727 -101.9778722457382, 10.416504700692041 -112.38501823269172 M-3.624044079222589 -92.70522258757964 C2.2887090506401573 -99.68354173791748, 7.69328997329416 -106.69274015960454, 12.22458569823493 -112.60270877318703 M-2.3288136341187906 -85.95689542784908 C0.32056499444211184 -92.80087138242429, 7.453517167937514 -102.46138633107286, 19.197414905073654 -113.71133745668021 M-4.427692257549989 -87.76163668272838 C3.4817310140083655 -95.53278283999502, 10.686346581744774 -103.43624971918786, 17.911257084617105 -112.87098991536608 M-5.470824842824351 -83.29100783162858 C3.1816568825126668 -87.18942413731574, 7.968033171553205 -93.7390853026151, 22.202917095872714 -110.35725385997034 M-4.143307421521027 -81.24949117516488 C5.173981873896416 -90.91231249568219, 12.222881505559025 -101.09348723196285, 22.999697978982237 -111.09043104257293 M-4.314014053670621 -77.08710005142878 C5.754261678249513 -85.21389174582426, 14.137001620834653 -98.11588124736697, 27.770770918876806 -112.27951595030001 M-3.456625745428524 -75.1911618585427 C7.985255949664829 -89.74762023425829, 20.210633997988076 -103.84422825456367, 28.206297408417257 -112.49084389785199 M-3.314268096506188 -69.97534270152521 C7.090989778209415 -81.81539056552602, 16.613723428467292 -93.29115728750727, 34.57842255578342 -113.26410424355718 M-2.897523226872842 -68.56792077514471 C11.244109302881863 -85.80596067348577, 25.55106848597104 -103.3143457309812, 32.566992677652344 -111.7428886597483 M-3.9528196262868622 -65.06421336553679 C8.03451762638653 -74.7122859688844, 14.02612043026672 -86.055027709441, 38.87576520751819 -112.52291394143691 M-3.360114293683899 -63.254199627296025 C12.51895579831701 -82.1523070756635, 29.333114423680264 -102.1932491695865, 37.864694637661756 -112.9866230433271 M-4.067233860754354 -57.38882986165537 C7.871832078298527 -71.65894643644705, 22.320614645446952 -88.40078065035244, 44.57356169608607 -113.15046553025725 M-4.298307271707046 -56.49505598348152 C8.52307595747214 -70.83467263171609, 19.645385898338994 -84.35031552534511, 44.1051326521936 -111.9024255732007 M-5.083234054347395 -52.18433654619765 C14.643910155029378 -72.97153192116588, 33.13870294503984 -93.9908402908, 50.73332121346034 -112.70502487775968 M-4.285086701444467 -52.01864894062105 C9.49101448176943 -67.31245111156649, 24.017454427253195 -82.21523896921646, 48.39856943757064 -111.72825930001996 M-6.178257136807122 -46.36147930477686 C10.811828112497718 -63.40704892491263, 27.171578570503115 -83.99404991447905, 52.91940519603843 -110.67989002558977 M-5.022194224578763 -45.3983349498733 C11.62930644195022 -61.7539093512502, 26.702446128120386 -79.55322861477896, 54.00117561183811 -112.19524888194208 M-2.132245286446854 -38.28410292351523 C17.067140305673632 -63.59499047375758, 36.51369294343845 -84.5133489510501, 61.53661702903553 -110.8992736840913 M-4.4809105323275915 -38.50913945144433 C10.263076466089498 -54.51657680430729, 24.182057197414863 -71.6976904559359, 58.98121236964518 -111.78628519387745 M-2.4355244138079684 -31.670348843144332 C12.076406908249407 -50.52989473302629, 26.041488123590486 -66.31360245053202, 60.72407650174262 -106.03881260133471 M-4.126807532895278 -31.88477502593053 C12.109447558303915 -50.490092893694126, 28.273628366473822 -69.90363450421378, 59.923991744216146 -107.17245817309693 M-2.712461097967134 -25.75169410364401 C15.452174550859796 -48.46011980840609, 35.91669511496396 -71.22966859059326, 59.519579738844726 -101.39977385640692 M-4.973710182557811 -26.118334085647696 C8.8583649718312 -43.37525608315369, 23.52866609781316 -59.65992207211603, 60.92390096439362 -100.71782394892378 M-5.849475837205349 -20.83975957054494 C22.308896529241572 -48.3825045223867, 45.08021356108808 -79.35864162865887, 58.79085115121592 -94.19735110475577 M-3.1231804404761245 -20.36770115814914 C14.505542960427098 -42.7279568521951, 33.991986389276406 -65.16294725080239, 60.45593035140803 -95.29321457584433 M-5.4663444889000745 -13.583516952088523 C16.035845311412306 -36.29658847948022, 33.95400903622579 -56.2067761379955, 60.11003273232686 -87.32006423964748 M-4.50470562327609 -14.719459392404746 C21.4454557601763 -43.14429472231593, 47.2975842520906 -72.0469786156172, 60.3518914663746 -87.86719033643726 M-2.019686327200696 -9.280633696861052 C23.041960163254622 -37.904720145461425, 44.23455908796982 -66.76777754654843, 61.3415446932986 -81.39742304354635 M-4.342794431287713 -8.00664816136182 C15.91401224674443 -30.155108312145746, 34.43523254500893 -52.537827916651885, 60.9342164271122 -82.74880939553724 M-5.216443967274089 -2.0203301643658618 C13.62066223000743 -21.882015198427606, 31.7602321167264 -43.31565826459494, 60.82256388146068 -76.27005778724966 M-4.354632478189792 -2.2004045487778257 C10.948248292821551 -19.433091091489207, 25.893198463383623 -35.88778994325327, 59.42304617814718 -75.57842445638165 M-6.129688872915358 5.261605196572241 C16.608779749001723 -22.528347286689737, 39.60096400342191 -44.855355069832065, 62.052186488994664 -69.40698608494664 M-3.989140362071505 3.2641058951377895 C18.94269088750994 -23.37164242262655, 42.00071955215959 -49.7138498812001, 60.913344165306796 -70.9298217252713 M2.4872720754806235 5.354260767880867 C20.63128011335199 -15.994910736851622, 37.674311981387035 -37.1493502494434, 61.74526244548038 -65.58561697196151 M1.2679928734340642 4.896819685122914 C24.146889021406206 -22.696846390918616, 45.87582234234273 -47.94455512802457, 60.57719911279294 -63.871787091880044 M5.608256686760334 3.9636515315371996 C24.619676677997425 -16.80856417721119, 42.67503801841431 -36.7182444127982, 59.05339852001393 -56.68088356608123 M6.087024894095411 5.581995029119822 C22.752587259280894 -13.831464856329049, 38.7651735360304 -32.55281770371091, 60.02922901635753 -58.52968646666128 M11.563068961437342 6.315615734550974 C23.44601211411846 -11.995826398422578, 39.20023428275118 -26.236382105844612, 60.09495469605449 -50.60895996922038 M10.308296128509495 5.040766363518693 C28.436132261663904 -14.681690156392767, 43.77899442366673 -32.008227148369386, 60.81189175844061 -52.711231384166645 M16.859414669324707 6.270164834794615 C30.006502893132755 -12.57718587455301, 45.05722969406129 -30.515607167529502, 62.24548845134486 -45.924312711484426 M15.500969089414982 5.880671616541829 C31.519354725037203 -12.342167204458363, 47.88014748992727 -31.05069368821044, 60.44236570119744 -46.1890720772839 M20.326168730472123 3.8567496686269696 C28.962466604652164 -5.6309261284484915, 39.109999497565816 -15.747150660954619, 62.23049685608081 -39.97917344723481 M21.183682299055448 4.395971082645062 C31.58476845722982 -7.583560490495161, 42.110558191583635 -20.206970334068153, 61.60155892886595 -40.96330894675177 M25.812772572989303 5.150617201517158 C39.61779430905803 -6.381257044112992, 49.37146381585053 -20.19679359736486, 59.1261838733808 -33.32398413901925 M27.423114329041212 3.9608921351184128 C35.34816112313336 -5.222837411479512, 44.5603310482255 -15.108820759190746, 61.105816715529556 -33.82685890158522 M33.297142562565334 3.2969500709293014 C40.13809873628064 -4.552726922274511, 49.3611691111563 -12.054325434052135, 61.81897023332323 -26.875664435300965 M32.859092830876214 3.6010821759326883 C41.44144682701719 -6.096201344205329, 51.33858260310404 -16.55098690927609, 59.76541222579436 -27.949905689171498 M36.007802301297325 3.5213187866451117 C45.23966194397737 -0.8655859472233489, 48.40091313318298 -10.841638987815477, 58.665024864391356 -19.883412430753754 M37.085774946388746 4.34740215333177 C45.3528405050931 -3.810956225920721, 50.79492556934398 -11.688139252600699, 61.42871411220552 -20.79436992315597 M43.68774977450789 2.6309777041352644 C51.688579393802534 -2.9477341046390944, 55.08310547303486 -10.52978836296641, 61.2567848538486 -13.377254863504842 M42.77992362079189 3.438373827518729 C47.9672647859154 -2.280063819782806, 54.4955908166434 -8.6721989877945, 60.05466834586117 -15.353401856415957 M47.260777975672696 5.445113828403768 C54.38959843817482 -1.9183149980796568, 56.29426412612589 -5.800430172039517, 59.614811867083624 -10.322707137257956 M48.76007747898338 4.223488720505552 C52.93691446417714 -0.5423824637034508, 56.59858899492247 -4.3239366399868855, 60.77113131544939 -10.095522093914346 M52.93295506575016 3.7767387416198064 C55.833925515819686 2.9411891043870977, 55.9899652012661 0.5544862117442243, 59.8515635871307 -3.951352327615048 M53.67849646516896 4.047683172598328 C56.07379809114188 1.3794017336470166, 58.270813807607986 -1.2204992748802912, 60.53667177075545 -2.6629483866740573 M58.89174102060842 4.661707346961337 C59.314608781834 4.0525781644064605, 59.57269719700331 3.712452434156526, 60.31586098803344 3.0708153448748607 M58.732166301071864 4.790085864752551 C59.2585962440784 4.285879611672929, 59.52491578322968 3.9356872854699634, 60.07388711267735 3.2213382938241826" stroke="white" stroke-width="0.5" fill="none"></path></g>
<!-- Node1 -->
<g id="node1" class="node">
<title>Node1</title>
<g><path d="M0.3223646651767993 -108.37083812642376 C0.3223646651767993 -108.37083812642376, 0.3223646651767993 -108.37083812642376, 0.3223646651767993 -108.37083812642376 M0.3223646651767993 -108.37083812642376 C0.3223646651767993 -108.37083812642376, 0.3223646651767993 -108.37083812642376, 0.3223646651767993 -108.37083812642376 M0.5043622864250414 -102.15382396092515 C0.7518226819675989 -103.86653861821385, 1.628908973439837 -105.15743962433089, 5.880435852116403 -107.31538619329575 M0.4487324911014119 -101.74945602195054 C1.3377727397129973 -103.562239123184, 2.755999300340032 -104.86119718033738, 5.3436456124550755 -108.10995293423935 M-1.2157310604127587 -94.89400558566201 C3.768755100393875 -99.07924587271954, 6.644018389367047 -102.79393287107229, 10.120504997713727 -106.20501306850075 M0.3115383408481257 -94.88785554209477 C4.023234324007055 -99.53382711364338, 7.498581749332424 -104.92686031186918, 9.624487994738184 -108.34425597168138 M0.9764263005054792 -89.87339191937048 C5.182379238122544 -92.63166622465718, 8.041165361004841 -99.48467281169394, 14.096712624491978 -109.7350566903406 M-0.7812265499060698 -89.01994277978889 C4.324424533302219 -96.19538405337588, 9.717091340604307 -100.4895892732631, 15.564774989761561 -107.78364526647336 M-0.8711934849300489 -82.65079240694693 C7.7849473788044214 -88.41853327592345, 9.844315030049405 -95.9037587387559, 22.268511286295382 -106.29689465616482 M-1.0648353233213226 -84.22026319843275 C5.989615856190224 -90.45046088953364, 10.958845289113675 -97.06317097975717, 20.1547592588676 -107.25961192789485 M1.2311935643754284 -78.55271550196571 C9.154313158720509 -86.39031410393474, 17.543584548759817 -97.66499112868229, 27.815140521274515 -107.4383038636333 M-0.3133418108525632 -77.55321882099796 C9.82694072087144 -87.96802172519239, 19.684434448660042 -100.33145877067884, 27.54055004339132 -108.19083020725422 M1.0081389374876553 -70.4632234405341 C12.619525491563666 -86.06130276166422, 23.301961185023675 -99.54373527343384, 32.71823739210135 -109.08879848977153 M0.20811090706520696 -71.86382617596466 C10.329070502495398 -84.70485983812013, 21.778891862191152 -98.1663011541137, 32.38459596507519 -107.7783468470923 M6.789779449306926 -71.9349687092447 C13.78208374364555 -79.62399407438008, 17.06154191391835 -85.4771602909476, 39.122083430777124 -106.5054235234827 M6.353457274692861 -71.676757993857 C14.806939529261587 -83.9122678909648, 23.911476336829807 -93.45593335386941, 36.63043688505406 -108.58199117502367 M12.65108742557643 -73.11767761627709 C23.81556653601339 -84.27542353371882, 33.93796261404319 -98.24965723084286, 44.04815389504727 -106.44684122058506 M10.874016086472169 -72.332775723401 C19.50689847806874 -82.11281503280992, 29.38751560071419 -93.20430060125426, 41.507641464026854 -107.95880494213455 M15.492118449864986 -72.94720637271163 C26.679081195999764 -81.7412591017667, 34.70988096200627 -96.0678213517559, 48.31028536948638 -107.92404962255951 M16.631606790145078 -71.7849602928561 C29.096494664047395 -87.04348272552656, 41.93786821385555 -99.8253206403843, 48.06513154344986 -108.21470019076428 M21.670950570364916 -73.54657920961348 C26.13480008427383 -79.78460923760069, 34.377763380616805 -85.07419877259322, 54.31971065203402 -107.48601678038781 M20.49597868280532 -70.85288818327275 C33.893010858965766 -84.61539687998804, 45.597847880223284 -98.69270857312763, 52.03728116241074 -106.93933898039563 M26.599673607037225 -70.89600630203832 C35.29727997552224 -80.96230115615579, 40.982507306030314 -88.78257135746868, 58.07313984001325 -106.91666579414287 M26.447409630399303 -71.36354705990681 C36.84975274119183 -82.03424959970157, 46.38658381836687 -92.65771241435228, 57.60472268543797 -105.79188137925676 M31.3145773075695 -73.52685100420508 C42.03609954363594 -80.7788024056668, 48.529056061504875 -92.91484301128962, 57.27377516930544 -101.20976821462892 M31.132420729608725 -71.30170030383412 C40.513593701091445 -82.59961530436304, 49.494338073772845 -93.09406127745011, 56.68602385977349 -100.34391761367148 M38.89221216370936 -73.31569087621158 C42.85673638809031 -78.20231872957238, 48.18027444438736 -83.12535084642589, 56.419788649843085 -94.90930780864369 M36.954314315754345 -72.98054301750975 C44.32227964133032 -79.13682863161077, 50.586712091827614 -86.9321206210674, 57.710696093813716 -94.95319575963028 M41.20211874570329 -71.65349590909301 C47.09637002500249 -79.54390779186876, 52.72042689887943 -83.02595200503542, 57.233257593554995 -88.57639843478762 M43.38592959165593 -71.31743549633319 C46.78991293796348 -77.54100194332108, 51.54992041056206 -82.07895655355877, 56.80096012769873 -87.74310071404378 M48.5173744555954 -72.80898841340735 C51.04232669225918 -76.13506539927235, 55.96430646334411 -80.4213748394381, 56.43587635568718 -81.87034914263195 M48.691616442243955 -72.50044220837624 C50.545855222205255 -75.35402154486717, 53.88759450439943 -78.57597113071658, 57.66664985283908 -82.83684086136614 M52.86461289314739 -71.66342573708893 C54.63661043876732 -73.00074956908296, 56.808643280903645 -74.99159564834095, 57.40933542512173 -76.66806705355646 M53.399842118337595 -71.83025585641857 C54.05644537449012 -72.63346397760728, 55.38044638813006 -73.88216733995137, 57.1720942652332 -76.37576298218588" stroke="none" stroke-width="0.5" fill="none"></path><path d="M55.634574607985 -106.340963360072 C33.70785482206645 -109.84962721329835, 14.452596828248577 -108.0017548080265, 0.5917723543404048 -107.03280239872895 M54.86754450842773 -108.95664151878657 C37.42210118747003 -107.93449875056997, 18.15455834814484 -107.28715360087624, 0.9078873849511266 -107.11779862058705 M-1.2850862560187748 -108.31139957472053 C0.9500099891342265 -92.28050040522297, 1.6356195057327652 -79.30549528469083, -0.07198518237431895 -71.48585156237988 M-0.49049821054685605 -108.84387760020653 C0.24918145594364605 -93.19446047660021, -0.3903497971495029 -79.78317812953738, -0.4626002631685049 -72.22789942655015 M-1.0966065009413937 -71.10963441049762 C14.972450179882447 -72.99025327476456, 33.21286095379153 -71.77559851137359, 54.86276248874685 -73.89119825370231 M0.011228171024390665 -71.70422741085024 C16.769320407639995 -72.31887070301687, 33.191270000549295 -71.26706872307237, 56.11923168794873 -71.71736965719268 M54.87695371107767 -72.9993995091829 C56.64851257362436 -85.73600662900287, 54.935637900842394 -100.62321990437022, 57.60204027476095 -109.07618668600468 M55.31193834147929 -72.04002951980146 C55.35369008060503 -81.64037874929873, 55.969197726612315 -93.31840417850782, 56.56994791925871 -107.22677415334518 M55.75 -108 C55.75 -108, 55.75 -108, 55.75 -108 M55.75 -108 C55.75 -108, 55.75 -108, 55.75 -108" stroke="black" stroke-width="1" fill="none"></path></g>
<text text-anchor="middle" x="27.88" y="-84.95" font-family="Times New Roman,serif" font-size="14.00">Node 1</text>
</g>
<!-- Node2 -->
<g id="node2" class="node">
<title>Node2</title>
<g><path d="M-0.1112314546045674 -35.87204284873366 C-0.1112314546045674 -35.87204284873366, -0.1112314546045674 -35.87204284873366, -0.1112314546045674 -35.87204284873366 M-0.1112314546045674 -35.87204284873366 C-0.1112314546045674 -35.87204284873366, -0.1112314546045674 -35.87204284873366, -0.1112314546045674 -35.87204284873366 M-0.06830243423603344 -30.76905122111704 C2.0620937373007076 -32.51206927252041, 4.58697392213585 -34.450707630833406, 5.1147784073729285 -36.072268835214985 M0.10151132480466027 -30.333609882594658 C1.4891907488512062 -31.682934597889247, 3.034846969573419 -33.53781656889637, 5.215257795510086 -36.30194775290234 M-0.7882867514715665 -23.905976425429845 C2.649893387672755 -27.818092867939157, 5.719761005540908 -29.46735078159447, 11.74959770891681 -35.35299584548274 M-0.06978722277607508 -23.121537000069665 C2.4017469801161853 -27.4649433518931, 5.1205095350273915 -30.04288796106124, 9.780450257880092 -36.41108997110479 M0.36939622897220925 -16.46368501583776 C5.122258844382588 -23.370690101955567, 12.452291862472372 -32.41806906856218, 16.793083152157674 -37.38833401947336 M-0.26356315825714294 -17.58681750243691 C4.433214514298186 -21.526076858182396, 8.046473653596456 -26.60561945418206, 16.881628659775927 -35.95830666025666 M0.037497685156155036 -11.06170709446658 C8.889986103527189 -20.187529351193916, 12.217564857755196 -28.796978419739496, 21.451925188384504 -35.43951995633672 M0.7761984522332255 -11.709850099120391 C5.015600602300061 -17.116360382566064, 10.063758105217257 -23.975523562001772, 20.552569933940564 -35.40505762957162 M1.2816733806267941 -6.901974622484876 C6.04742234462702 -12.467050601461562, 12.605205771985236 -19.547975514859147, 27.852952883288744 -37.71012240400837 M-0.21741716728407523 -5.710968275977027 C5.89172439079581 -14.114958930430639, 13.592331914734707 -20.46380858641787, 26.51089663371922 -36.951628091495614 M-0.931051535177261 1.7650689337785295 C8.802967508113433 -10.437683457109664, 18.847742810760355 -19.69657118549815, 33.15210861619894 -34.804083032984934 M-0.031964647886866426 -0.09486151486920313 C7.230738766677355 -7.846335258135089, 13.974301183877078 -15.155352087002536, 32.06140021533854 -35.818756932552375 M5.310887071303095 0.3627397206182912 C15.92075688660952 -15.113785496826265, 29.0059690791922 -28.424148942203658, 35.827533444152365 -36.14188431950299 M6.016783944601418 1.2932250030249257 C13.789717707222062 -9.204123669550562, 21.07583679274586 -17.200128560966707, 37.718924496684515 -37.037535845563234 M11.873716649012934 -0.8037545893211036 C19.045627169210583 -9.556860909747627, 26.656265071537984 -16.773241168463272, 41.63377899523409 -36.86890189783762 M10.812996902007578 0.8360698996312843 C20.44178162579467 -9.87764159029846, 29.399993290566197 -21.565597273739233, 42.37724114769094 -36.81317035558299 M15.408985506735476 -0.7723050261303257 C23.945838074301832 -7.053718683173045, 30.99017129833143 -16.691174783133427, 47.768392658601705 -35.25985914261935 M15.390284975698474 1.5183806506955726 C27.40292103748125 -13.897236397890918, 40.17938569399623 -26.616685023867106, 48.29010730396686 -35.47560895037905 M21.516861396671906 -1.590683863061228 C32.85668650950233 -11.147217549700262, 42.84796019603169 -27.843976034566808, 51.78773910259357 -37.66845259327648 M21.325245168797434 -0.042497071623528004 C32.97543538894066 -12.739152861099297, 45.258799493375975 -26.710101519990864, 53.15625136186041 -35.6775965111238 M27.697904373266674 0.190011498594294 C37.192406228063035 -13.626027412209051, 50.357258947851086 -26.697774533108387, 55.05510037249235 -34.90723381315489 M26.466672186989257 1.1009463937403998 C33.1230528023539 -7.384033366705175, 39.692947870346124 -14.220810473632202, 56.31107477607119 -34.890929042973816 M30.926762651231666 1.2792834533135036 C41.57355119714302 -12.112924735745302, 49.7657981060158 -20.37494221751147, 56.38479468720387 -29.309160739552606 M31.256500109930638 0.7256970107759009 C39.47692912000947 -7.833727520348338, 47.45335761748212 -16.04948847649321, 56.25671063741428 -28.768435490582206 M38.32540824839026 -1.347545306581643 C41.13701470566599 -6.389693995424061, 47.6477489072429 -11.675697713377918, 54.3826483090912 -20.563590366460883 M37.79544518457604 0.28849006916928577 C40.55127492035285 -4.79395866103493, 45.48893849539243 -9.696658300418662, 56.44538832235699 -21.04187340873862 M44.10684853415661 0.39939713770285845 C48.3233621630269 -5.3491355970097025, 52.097368613803816 -8.434892224376728, 55.81537154391264 -16.358815167064265 M43.28324800694368 -0.23348036701592134 C47.28881869482166 -6.24744027437205, 51.66069170761222 -10.367568600647013, 55.64785187174064 -16.44359129219425 M46.74636363067334 -0.2453335809160142 C49.60448887050451 -3.080796731672231, 53.72849751129215 -4.812757683968119, 56.70280661151818 -9.141334154308716 M47.833839062742406 -0.040238067214778184 C49.55585925175318 -2.717988017827014, 52.449350908161236 -5.0970970616006, 56.32988896724052 -8.709390936313822 M53.34056853334422 0.3755881000682747 C54.25523660923071 -0.9261332060501606, 55.05797575976408 -1.8583557079350685, 56.39886208238521 -4.194271770706341 M53.40135376867348 0.17645877548141536 C54.439248653783835 -1.1417101566454901, 55.62482697934031 -1.8829321903154792, 56.72318340326063 -3.648726779134732" stroke="none" stroke-width="0.5" fill="none"></path><path d="M54.59981019539819 -37.39505450446075 C41.76503603495978 -35.093390002172754, 32.209973251423826 -36.5015600955243, -0.18087440873828342 -37.922281682325846 M55.97784887507423 -35.605254126344185 C35.69475171113438 -36.64019495359372, 14.545101001287518 -37.01832281409612, 0.028580633754153872 -35.96485443064662 M-1.9905418769635599 -34.22952437248934 C-1.8106640229506397 -24.459937047184045, -1.284984992341518 -17.73432157936122, 0.0014312647159977487 1.1051523126687464 M-0.03045979684899125 -36.76145298284283 C-0.1702426413717515 -21.798969186204566, 1.1814535813179219 -8.11151299058309, 0.29382416369731246 -0.469277992207886 M0.3187460570194496 1.1532336013055504 C10.591526479229579 0.16388375883490014, 26.3431976126268 -0.5578999939506594, 56.27942425825677 -1.3526469127864331 M0.9651032991561745 0.8884574007201782 C20.630744068715185 0.0017635340455925963, 41.77049720340178 0.6785187812371904, 54.798705903617446 0.4169615453298783 M54.97104316702975 0.1414505955822012 C54.60522594631218 -10.843961298621569, 54.108539258224496 -19.8797789036737, 57.64300109212663 -34.69633913295143 M56.454980719762375 0.6590263345768581 C55.7419546618327 -13.357700578714592, 55.97065044887191 -29.224557730953308, 55.48364279468015 -36.725214393028565 M55.75 -36 C55.75 -36, 55.75 -36, 55.75 -36 M55.75 -36 C55.75 -36, 55.75 -36, 55.75 -36" stroke="black" stroke-width="1" fill="none"></path></g>
<text text-anchor="middle" x="27.88" y="-12.95" font-family="Times New Roman,serif" font-size="14.00">Node 2</text>
</g>
<!-- Node1&#45;&gt;Node2 -->
<g id="edge1" class="edge">
<title>Node1-&gt;Node2</title>
<g><path d="M27.88 -71.7 C29.787095416638547 -64.49817683260986, 27.740182269213957 -57.49366757887891, 27.04726797713473 -48.42846797793698 M29.63956131647174 -71.7318788295204 C26.085773005262407 -62.756166637618904, 29.49783297895478 -55.495304291422414, 29.98172987638973 -49.71837338644718" stroke="black" stroke-width="1" fill="none"></path></g>
<g><path d="M24.423306891472787 -47.669818879765245 C24.423306891472787 -47.669818879765245, 24.423306891472787 -47.669818879765245, 24.423306891472787 -47.669818879765245 M24.423306891472787 -47.669818879765245 C24.423306891472787 -47.669818879765245, 24.423306891472787 -47.669818879765245, 24.423306891472787 -47.669818879765245 M26.30053529371287 -43.80191403691876 C26.84320170775763 -44.45947320358691, 28.438275199998614 -46.02593947869191, 28.916637955225326 -47.08651308203839 M25.96232800877485 -43.51806312480061 C27.432038086362777 -44.814205119116714, 28.73539037100861 -46.46315891750113, 29.252817378858847 -47.13958371639878 M27.1386363704737 -38.49030740213834 C27.82676969234962 -39.692758125980866, 28.98557868502857 -41.33559490438126, 30.541452898133812 -42.89524817343558 M27.199573113831022 -38.49755536797018 C28.28295948413948 -39.70793494674796, 28.994636205119356 -41.18916258906836, 30.57959025905813 -42.58082265414515" stroke="black" stroke-width="0.5" fill="none"></path><path d="M30.602211415504787 -47.63425723791465 C31.11598937070287 -43.867908264184095, 28.7452973506565 -41.35738681992494, 27.157313790558494 -37.757112556186414 M31.04419947405407 -47.87328646737553 C30.871483368563208 -45.50178117225825, 29.401511840249004 -42.96105420235045, 27.678688028189466 -37.31727531426573 M28.04319449380427 -38.050647604148146 C26.22179244004908 -39.873218396738686, 25.32807830927494 -43.468712585692735, 24.604578229043835 -48.496958362138244 M27.72125015944309 -38.127131947819834 C26.873794048558146 -39.87428954918757, 26.167088551631377 -41.678601397727796, 23.852176383026116 -47.48440777412356 M23.778561469787718 -46.98354747809816 C25.649807127106 -48.1653987290043, 26.740166445000074 -47.094188761452784, 31.050903273494846 -47.374691810982924 M24.19308035712112 -47.36563520705252 C26.523170937050818 -47.33680238444161, 28.2088960011363 -47.56837065183164, 31.499024860220892 -47.79001302106578 M31.38 -47.62 C31.38 -47.62, 31.38 -47.62, 31.38 -47.62 M31.38 -47.62 C31.38 -47.62, 31.38 -47.62, 31.38 -47.62" stroke="black" stroke-width="1" fill="none"></path></g>
</g>
</g>
</svg>
